HIERARCHY
ROOT Joint1
{
	OFFSET 0.000000 0.000000 0.000000
	CHANNELS 6 Xposition Yposition Zposition Xrotation Yrotation Zrotation
	JOINT Joint2
	{
		OFFSET -0.000000 0.000000 1.456275
		CHANNELS 6 Xposition Yposition Zposition Xrotation Yrotation Zrotation
		JOINT Joint3
		{
			OFFSET -0.000000 0.000002 1.471446
			CHANNELS 6 Xposition Yposition Zposition Xrotation Yrotation Zrotation
			JOINT Joint4
			{
				OFFSET 0.625745 0.000000 0.917755
				CHANNELS 6 Xposition Yposition Zposition Xrotation Yrotation Zrotation
				JOINT Joint5
				{
					OFFSET -0.629534 0.000001 0.940221
					CHANNELS 6 Xposition Yposition Zposition Xrotation Yrotation Zrotation
					JOINT Joint6
					{
						OFFSET -0.000001 0.113772 1.960660
						CHANNELS 6 Xposition Yposition Zposition Xrotation Yrotation Zrotation
						JOINT Joint7
						{
							OFFSET -0.669733 -0.113771 0.388340
							CHANNELS 6 Xposition Yposition Zposition Xrotation Yrotation Zrotation
							End Site
							{
								OFFSET 0.005509 0.005509 0.438980
							}
						}
					}
				}
			}
		}
	}
}
MOTION
Frames: 27
Frame Time: 0.041667
0.000000 0.000000 0.000000 -0.000000 1.019410 44.246976 -0.000000 0.000000 1.456275 0.000000 1.658596 0.000001 -0.000000 0.000002 1.471446 -0.000003 -1.133455 67.372945 0.625745 0.000000 0.917755 -0.000002 118.433117 -0.000001 -0.629534 0.000001 0.940221 -0.000001 1.709733 -66.636644 -0.000001 0.113772 1.960660 -88.303882 153.283993 0.000001 -0.669733 -0.113771 0.388339 -1.436891 3.257031 180.918310 
0.000000 0.000000 0.000000 -0.000000 1.019410 45.442867 -0.000000 0.000000 1.456275 0.000000 2.919072 -0.000000 -0.000000 0.000002 1.471445 -0.000004 -1.133456 69.194611 0.625744 0.000000 0.917755 0.000005 117.984783 0.000003 -0.629534 0.000001 0.940221 0.000000 1.709736 -68.437054 -0.000001 0.113772 1.960661 -88.303882 154.995147 0.000004 -0.669733 -0.113771 0.388340 -1.452064 3.241051 182.159984 
0.000000 0.000000 0.000000 -0.000000 1.019410 46.638755 -0.000000 -0.000000 1.456275 0.000000 4.179547 -0.000001 -0.000000 0.000002 1.471446 -0.000004 -1.133455 71.016284 0.625745 0.000000 0.917755 0.000001 117.536463 -0.000002 -0.629534 0.000001 0.940221 0.000000 1.709738 -70.237472 -0.000001 0.113772 1.960660 -88.303882 156.706273 -0.000000 -0.669733 -0.113771 0.388340 -1.466882 3.224737 183.401630 
0.000000 0.000000 0.000000 -0.000000 1.019410 47.834649 -0.000000 -0.000000 1.456275 0.000000 5.440022 0.000002 -0.000000 0.000002 1.471445 -0.000003 -1.133455 72.837957 0.625745 0.000000 0.917755 0.000003 117.088130 -0.000004 -0.629533 0.000001 0.940221 0.000000 1.709734 -72.037882 -0.000001 0.113772 1.960661 -88.303882 158.417427 -0.000000 -0.669733 -0.113771 0.388341 -1.481343 3.208114 184.643236 
0.000000 0.000000 0.000000 -0.000000 1.019410 49.030533 -0.000000 -0.000000 1.456275 -0.000000 6.700500 -0.000002 -0.000000 0.000002 1.471445 -0.000003 -1.133455 74.659637 0.625745 0.000000 0.917755 0.000002 116.639810 -0.000003 -0.629534 0.000001 0.940221 -0.000003 1.709736 -73.838300 -0.000001 0.113772 1.960661 -88.303882 160.128567 0.000004 -0.669733 -0.113771 0.388340 -1.495446 3.191181 185.884828 
0.000000 0.000000 0.000000 -0.000000 1.019410 50.226421 -0.000000 -0.000000 1.456275 -0.000000 7.960972 -0.000001 -0.000000 0.000002 1.471445 -0.000005 -1.133455 76.481316 0.625745 0.000000 0.917755 0.000007 116.191463 0.000002 -0.629534 0.000001 0.940221 0.000001 1.709736 -75.638710 -0.000001 0.113772 1.960660 -88.303882 161.839707 0.000003 -0.669733 -0.113771 0.388340 -1.509169 3.173945 187.126379 
0.000000 0.000000 0.000000 -0.000000 1.019410 51.422305 -0.000000 0.000000 1.456275 -0.000000 9.221444 -0.000001 -0.000000 0.000002 1.471446 -0.000004 -1.133454 78.302976 0.625745 0.000000 0.917755 -0.000001 115.743143 0.000001 -0.629534 0.000001 0.940221 0.000001 1.709737 -77.439114 -0.000001 0.113772 1.960661 -88.303882 163.550833 -0.000003 -0.669733 -0.113771 0.388341 -1.522522 3.156419 188.367929 
0.000000 0.000000 0.000000 -0.000000 1.019410 52.618200 -0.000000 0.000000 1.456275 -0.000000 10.481924 -0.000000 -0.000000 0.000002 1.471445 -0.000005 -1.133454 80.124655 0.625745 0.000000 0.917755 0.000013 115.294809 -0.000001 -0.629534 0.000001 0.940221 -0.000004 1.709737 -79.239531 -0.000001 0.113772 1.960660 -88.303882 165.261987 -0.000006 -0.669733 -0.113771 0.388340 -1.535490 3.138605 189.609453 
0.000000 0.000000 0.000000 -0.000000 1.019410 53.814114 -0.000000 0.000000 1.456275 -0.000000 11.742420 0.000000 -0.000000 0.000002 1.471446 -0.000004 -1.133454 81.946356 0.625745 0.000000 0.917755 0.000000 114.846462 -0.000003 -0.629534 0.000001 0.940220 -0.000000 1.709734 -81.039969 -0.000001 0.113772 1.960661 -88.303875 166.973154 -0.000001 -0.669733 -0.113771 0.388340 -1.548063 3.120515 190.850976 
0.000000 0.000000 0.000000 -0.000000 1.019410 55.009982 -0.000000 0.000000 1.456275 -0.000000 13.002876 0.000003 -0.000000 0.000002 1.471445 -0.000005 -1.133454 83.768008 0.625745 0.000000 0.917756 0.000004 114.398155 -0.000012 -0.629534 0.000001 0.940221 -0.000004 1.709738 -82.840359 -0.000001 0.113772 1.960660 -88.303882 168.684267 0.000004 -0.669733 -0.113771 0.388340 -1.560242 3.102156 192.092404 
0.000000 0.000000 0.000000 -0.000000 1.019410 56.205794 -0.000000 -0.000000 1.456275 -0.000000 14.263277 0.000001 -0.000000 0.000002 1.471446 -0.000004 -1.133456 85.589579 0.625745 0.000001 0.917755 0.000005 113.949856 -0.000008 -0.629534 0.000001 0.940221 -0.000003 1.709736 -84.640667 -0.000001 0.113772 1.960660 -88.303882 170.395297 0.000000 -0.669733 -0.113771 0.388340 -1.572028 3.083545 193.333764 
0.000000 0.000000 0.000000 -0.000000 1.019410 57.401764 -0.000000 0.000000 1.456275 -0.000001 15.523826 0.000001 -0.000000 0.000002 1.471446 -0.000005 -1.133455 87.411354 0.625745 0.000000 0.917755 0.000005 113.501502 0.000002 -0.629534 0.000001 0.940221 0.000001 1.709736 -86.441180 -0.000001 0.113771 1.960660 -88.303882 172.106547 0.000003 -0.669733 -0.113771 0.388340 -1.583399 3.064679 194.575260 
0.000000 0.000000 0.000000 -0.000000 1.019410 58.597907 -0.000000 -0.000000 1.456275 -0.000000 16.784579 0.000001 -0.000000 0.000002 1.471446 -0.000005 -1.133454 89.233423 0.625745 0.000000 0.917755 0.000005 113.053073 0.000003 -0.629534 0.000001 0.940221 -0.000004 1.709736 -88.241987 -0.000001 0.113772 1.960660 -88.303882 173.818055 0.000001 -0.669733 -0.113771 0.388341 -1.594362 3.045564 195.816920 
0.000000 0.000000 0.000000 -0.000000 1.019410 59.793539 -0.000000 0.000000 1.456275 0.000000 18.044778 0.000002 -0.000000 0.000002 1.471445 -0.000004 -1.133453 91.054707 0.625745 0.000000 0.917755 -0.000006 112.604841 -0.000002 -0.629534 0.000001 0.940221 -0.000001 1.709737 -90.042008 -0.000001 0.113772 1.960661 -88.303882 175.528827 0.000000 -0.669733 -0.113771 0.388340 -1.604901 3.026225 197.058006 
0.000000 0.000000 0.000000 -0.000000 1.019410 60.988453 -0.000000 0.000000 1.456275 0.000000 19.304229 -0.000001 -0.000000 0.000002 1.471446 -0.000006 -1.133454 92.874891 0.625745 0.000000 0.917755 -0.000006 112.156883 -0.000000 -0.629533 0.000001 0.940221 -0.000000 1.709734 -91.840950 -0.000001 0.113772 1.960660 -88.303882 177.238587 -0.000001 -0.669733 -0.113771 0.388341 -1.615015 3.006676 198.298341 
0.000000 0.000000 0.000000 -0.000000 1.019410 62.185314 -0.000000 0.000000 1.456275 -0.000001 20.565729 0.000000 -0.000000 0.000002 1.471445 -0.000006 -1.133455 94.698053 0.625745 0.000000 0.917755 0.000004 111.708188 0.000003 -0.629533 0.000001 0.940221 0.000002 1.709736 -93.642829 -0.000001 0.113772 1.960660 -88.303882 178.951107 -0.000001 -0.669733 -0.113771 0.388340 -1.624720 2.986887 199.540657 
0.000000 0.000000 0.000000 -0.000000 1.019410 63.384845 -0.000000 0.000000 1.456275 -0.000000 21.830039 -0.000000 -0.000000 0.000002 1.471446 -0.000006 -1.133456 96.525278 0.625745 0.000000 0.917755 0.000003 111.258488 -0.000003 -0.629534 0.000001 0.940221 0.000000 1.709735 -95.448724 -0.000001 0.113773 1.960660 -88.303875 180.667478 -0.000000 -0.669733 -0.113771 0.388340 -1.634009 2.966842 200.785719 
0.000000 0.000000 0.000000 -0.000000 1.019410 64.577089 -0.000000 0.000000 1.456275 0.000000 23.086676 -0.000000 -0.000000 0.000002 1.471446 -0.000006 -1.133453 98.341405 0.625745 0.000001 0.917755 0.000007 110.811521 -0.000006 -0.629533 0.000001 0.940221 0.000000 1.709737 -97.243657 -0.000001 0.113771 1.960661 -88.303875 182.373400 0.000001 -0.669733 -0.113771 0.388340 -1.642808 2.946722 202.023212 
0.000000 0.000000 0.000000 -0.000000 1.019410 65.759395 -0.000000 -0.000000 1.456275 -0.000000 24.332844 0.000002 -0.000000 0.000002 1.471446 -0.000006 -1.133458 100.142383 0.625745 0.000001 0.917755 0.000010 110.368282 -0.000006 -0.629534 0.000001 0.940221 0.000001 1.709736 -99.023618 -0.000001 0.113772 1.960661 -88.303882 184.065115 0.000001 -0.669733 -0.113771 0.388340 -1.651103 2.926588 203.250365 
0.000000 0.000000 0.000000 -0.000000 1.019410 66.968871 -0.000000 0.000000 1.456275 -0.000000 25.607631 -0.000000 -0.000000 0.000002 1.471446 -0.000006 -1.133457 101.984751 0.625744 0.000001 0.917755 0.000004 109.914874 -0.000001 -0.629534 0.000001 0.940221 0.000000 1.709736 -100.844478 -0.000001 0.113772 1.960661 -88.303882 185.795680 0.000000 -0.669733 -0.113771 0.388340 -1.659139 2.905813 204.505658 
0.000000 0.000000 0.000000 -0.000000 1.019410 68.215442 -0.000000 0.000000 1.456275 -0.000002 26.921525 -0.000002 -0.000000 0.000002 1.471445 -0.000008 -1.133455 103.883632 0.625744 0.000001 0.917755 0.000005 109.447545 -0.000002 -0.629534 0.000001 0.940221 0.000000 1.709735 -102.721196 -0.000001 0.113772 1.960660 -88.303875 187.579343 0.000001 -0.669733 -0.113771 0.388340 -1.666941 2.884223 205.799446 
0.000000 0.000000 0.000000 -0.000000 1.019410 69.360653 -0.000000 0.000000 1.456275 -0.000001 28.128580 -0.000001 -0.000000 0.000002 1.471445 -0.000006 -1.133456 105.628104 0.625745 0.000001 0.917755 0.000005 109.018220 -0.000003 -0.629534 0.000001 0.940220 0.000001 1.709736 -104.445306 -0.000001 0.113772 1.960661 -88.303882 189.217960 0.000000 -0.669733 -0.113771 0.388340 -1.673678 2.864238 206.987981 
0.000000 0.000000 0.000000 -0.000000 1.019410 70.277818 -0.000000 0.000000 1.456275 0.000000 29.095277 -0.000000 -0.000000 0.000002 1.471446 -0.000007 -1.133457 107.025192 0.625744 0.000001 0.917755 0.000007 108.674389 -0.000003 -0.629534 0.000001 0.940221 -0.000000 1.709734 -105.826090 -0.000001 0.113772 1.960660 -88.303882 190.530285 0.000000 -0.669733 -0.113771 0.388341 -1.678771 2.848135 207.939850 
0.000000 0.000000 0.000000 -0.000000 1.019410 71.035818 -0.000000 0.000000 1.456275 -0.000002 29.894222 -0.000002 -0.000001 0.000002 1.471446 -0.000007 -1.133456 108.179856 0.625745 0.000000 0.917755 0.000003 108.390219 -0.000005 -0.629533 0.000001 0.940221 0.000000 1.709735 -106.967272 -0.000001 0.113772 1.960660 -88.303882 191.614878 0.000000 -0.669733 -0.113771 0.388340 -1.682780 2.834763 208.726538 
0.000000 0.000000 0.000000 -0.000000 1.019410 71.752428 -0.000000 -0.000000 1.456275 -0.000002 30.649528 0.000001 -0.000001 0.000002 1.471446 -0.000008 -1.133455 109.271450 0.625745 0.000001 0.917755 0.000006 108.121560 -0.000003 -0.629534 0.000001 0.940221 0.000000 1.709735 -108.046127 -0.000001 0.113772 1.960660 -88.303882 192.640240 -0.000001 -0.669733 -0.113771 0.388340 -1.686400 2.822072 209.470236 
0.000000 0.000000 0.000000 -0.000000 1.019410 72.519957 -0.000000 -0.000000 1.456275 -0.000000 31.458513 -0.000000 -0.000000 0.000002 1.471446 -0.000007 -1.133456 110.440614 0.625745 0.000001 0.917755 0.000008 107.833818 -0.000002 -0.629534 0.000001 0.940221 -0.000001 1.709736 -109.201638 -0.000001 0.113772 1.960661 -88.303882 193.738452 0.000000 -0.669733 -0.113771 0.388340 -1.690094 2.808429 210.266773 
0.000000 0.000000 0.000000 -0.000000 1.019410 73.328884 -0.000000 -0.000000 1.456275 -0.000001 32.311122 0.000002 -0.000000 0.000002 1.471445 -0.000006 -1.133456 111.672821 0.625745 0.000000 0.917755 0.000008 107.530564 -0.000004 -0.629534 0.000001 0.940221 -0.000001 1.709735 -110.419475 -0.000001 0.113772 1.960660 -88.303882 194.895896 0.000001 -0.669733 -0.113771 0.388341 -1.693781 2.793995 211.106257 
